<svg width="19" height="20" viewBox="0 0 19 20" fill="none" xmlns="http://www.w3.org/2000/svg">
<path d="M9.69401 3.74828C11.5143 3.74828 12.7422 4.5346 13.4424 5.19164L16.1782 2.52042C14.4979 0.958578 12.3114 0 9.69401 0C5.90266 0 2.62827 2.17572 1.03418 5.34237L4.16848 7.77665C4.9548 5.43931 7.13053 3.74828 9.69401 3.74828Z" fill="#EA4335"/>
<path d="M19.0002 9.90933C19.0002 9.11229 18.9356 8.53066 18.7955 7.92749H9.69409V11.525H15.0366C14.9288 12.4189 14.3472 13.7654 13.0546 14.6701L16.1136 17.0398C17.9447 15.3486 19.0002 12.8606 19.0002 9.90933Z" fill="#4285F4"/>
<path d="M4.17919 11.6112C3.9745 11.008 3.85603 10.3617 3.85603 9.69394C3.85603 9.02609 3.9745 8.37986 4.16838 7.7767L1.03399 5.34241C0.377037 6.65649 0 8.13211 0 9.69394C0 11.2557 0.377037 12.7314 1.03399 14.0454L4.17919 11.6112Z" fill="#FBBC05"/>
<path d="M9.69378 19.3878C12.3111 19.3878 14.5084 18.5262 16.1133 17.0397L13.0543 14.6701C12.2357 15.241 11.1371 15.6395 9.69378 15.6395C7.13031 15.6395 4.95458 13.9484 4.17907 11.6111L1.04468 14.0453C2.63877 17.2121 5.90235 19.3878 9.69378 19.3878Z" fill="#34A853"/>
</svg>
